<?xml version="1.0" standalone="no"?>
<!DOCTYPE svg PUBLIC "-//W3C//DTD SVG 20010904//EN"
 "http://www.w3.org/TR/2001/REC-SVG-20010904/DTD/svg10.dtd">
<svg version="1.0" xmlns="http://www.w3.org/2000/svg"
 width="114.000000pt" height="114.000000pt" viewBox="0 0 114.000000 114.000000"
 preserveAspectRatio="xMidYMid meet">
<metadata>
Created by potrace 1.11, written by Peter Selinger 2001-2013
</metadata>
<g transform="translate(0.000000,114.000000) scale(0.100000,-0.100000)"
fill="#000000" stroke="none">
<path d="M10 570 l0 -560 560 0 560 0 0 560 0 560 -560 0 -560 0 0 -560z m168
422 c4 -28 -24 -40 -45 -19 -21 21 -9 49 19 45 15 -2 24 -11 26 -26z m402 13
c10 -12 10 -18 0 -30 -10 -12 -42 -15 -166 -15 -139 0 -154 2 -163 18 -19 36
5 42 165 42 122 0 154 -3 164 -15z m-405 -175 c0 -18 -6 -26 -23 -28 -27 -4
-40 22 -22 44 19 22 45 13 45 -16z m405 15 c10 -12 10 -18 0 -30 -10 -12 -42
-15 -164 -15 -160 0 -184 6 -165 42 9 16 24 18 163 18 124 0 156 -3 166 -15z
m-412 -154 c21 -13 10 -46 -16 -49 -27 -4 -40 22 -22 43 14 17 20 18 38 6z
m406 -6 c8 -9 13 -22 10 -30 -9 -22 -329 -22 -338 0 -3 8 2 21 10 30 12 12 44
15 159 15 115 0 147 -3 159 -15z m376 -140 c79 -41 118 -141 88 -226 -13 -38
-165 -259 -178 -259 -5 0 -47 54 -94 121 -65 92 -87 131 -92 166 -18 124 85
233 206 217 25 -3 56 -12 70 -19z"/>
<path d="M817 425 c-25 -25 -30 -54 -13 -80 32 -48 97 -41 117 13 21 54 -63
109 -104 67z"/>
</g>
</svg>
